<?xml version="1.0" encoding="UTF-8"?><svg xmlns="http://www.w3.org/2000/svg" xmlns:xlink="http://www.w3.org/1999/xlink" height="62.0" preserveAspectRatio="xMidYMid meet" version="1.0" viewBox="0.0 0.0 62.0 62.0" width="62.0" zoomAndPan="magnify"><g><g id="change1_1"><path d="M 61 48 C 61 55.179688 55.179688 61 48 61 C 40.820312 61 35 55.179688 35 48 C 35 40.820312 40.820312 35 48 35 C 55.179688 35 61 40.820312 61 48" fill="#e6e9ed"/></g><g id="change1_2"><path d="M 27 14 C 27 21.179688 21.179688 27 14 27 C 6.820312 27 1 21.179688 1 14 C 1 6.820312 6.820312 1 14 1 C 21.179688 1 27 6.820312 27 14" fill="#e6e9ed"/></g><g id="change2_1"><path d="M 27.667969 38.539062 C 28.589844 39.679688 29.71875 40.652344 31 41.390625 C 29.230469 42.417969 27.191406 43 25 43 L 13 43 C 6.371094 43 1 37.628906 1 31 C 1 29.390625 1.320312 27.847656 1.890625 26.449219 C 2.46875 25.039062 3.300781 23.78125 4.339844 22.699219 C 5.238281 23.699219 6.300781 24.558594 7.46875 25.230469 L 7.460938 25.238281 C 5.941406 26.691406 5 28.738281 5 31 C 5 35.410156 8.589844 39 13 39 L 25 39 C 25.929688 39 26.832031 38.839844 27.667969 38.539062" fill="#fcd770"/></g><g id="change2_2"><path d="M 30.988281 25.71875 C 30.109375 24.699219 28.96875 23.917969 27.667969 23.460938 C 26.839844 23.160156 25.941406 23 25 23 L 23.378906 23 C 23.539062 22.832031 23.699219 22.652344 23.859375 22.46875 C 24.730469 21.449219 25.449219 20.300781 25.988281 19.039062 C 27.800781 19.191406 29.5 19.738281 31 20.609375 C 32.28125 21.347656 33.410156 22.320312 34.332031 23.460938 C 36 25.519531 37 28.140625 37 31 C 37 32.429688 36.75 33.800781 36.289062 35.070312 C 35.832031 36.339844 35.160156 37.511719 34.332031 38.539062 C 33.03125 38.082031 31.890625 37.300781 31.011719 36.28125 C 32.238281 34.871094 33 33.019531 33 31 C 33 28.980469 32.238281 27.128906 30.988281 25.71875" fill="#fcd770"/></g><g id="change2_3"><path d="M 31.011719 36.28125 C 31.890625 37.300781 33.03125 38.082031 34.332031 38.539062 C 35.160156 38.839844 36.058594 39 37 39 L 38.621094 39 C 37.53125 40.140625 36.640625 41.480469 36.011719 42.960938 C 34.199219 42.808594 32.5 42.261719 31 41.390625 C 29.71875 40.652344 28.589844 39.679688 27.667969 38.539062 C 26 36.480469 25 33.859375 25 31 C 25 29.570312 25.25 28.199219 25.710938 26.929688 C 26.167969 25.660156 26.839844 24.488281 27.667969 23.460938 C 28.96875 23.917969 30.109375 24.699219 30.988281 25.71875 C 29.761719 27.128906 29 28.980469 29 31 C 29 33.019531 29.761719 34.871094 31.011719 36.28125" fill="#fcd770"/></g><g id="change2_4"><path d="M 61 31 C 61 32.609375 60.679688 34.152344 60.109375 35.550781 C 59.53125 36.960938 58.699219 38.21875 57.660156 39.300781 C 56.761719 38.300781 55.699219 37.441406 54.53125 36.769531 L 54.539062 36.761719 C 56.058594 35.308594 57 33.261719 57 31 C 57 26.589844 53.410156 23 49 23 L 37 23 C 36.070312 23 35.167969 23.160156 34.332031 23.460938 C 33.410156 22.320312 32.28125 21.347656 31 20.609375 C 32.769531 19.582031 34.808594 19 37 19 L 49 19 C 55.628906 19 61 24.371094 61 31" fill="#fcd770"/></g><g id="change3_1"><path d="M 48.621094 10.539062 C 48.859375 10.96875 49 11.46875 49 12 C 49 13.660156 47.660156 15 46 15 C 44.339844 15 43 13.660156 43 12 C 43 11.410156 43.167969 10.847656 43.46875 10.390625 C 44 9.550781 44.929688 9 46 9 C 47.128906 9 48.109375 9.621094 48.621094 10.539062" fill="#ff826e"/></g><g id="change3_2"><path d="M 55 5 C 56.101562 5 57 5.902344 57 7 C 57 8.097656 56.101562 9 55 9 C 54.25 9 53.601562 8.582031 53.25 7.96875 C 53.089844 7.679688 53 7.347656 53 7 C 53 5.902344 53.898438 5 55 5" fill="#ff826e"/></g><g id="change3_3"><path d="M 39 5 C 39 7.210938 37.210938 9 35 9 C 32.789062 9 31 7.210938 31 5 C 31 2.789062 32.789062 1 35 1 C 37.210938 1 39 2.789062 39 5" fill="#ff826e"/></g><g id="change3_4"><path d="M 27 53 C 29.210938 53 31 54.789062 31 57 C 31 59.210938 29.210938 61 27 61 C 24.789062 61 23 59.210938 23 57 C 23 54.789062 24.789062 53 27 53" fill="#ff826e"/></g><g id="change3_5"><path d="M 8.75 54.03125 C 8.910156 54.320312 9 54.648438 9 55 C 9 56.101562 8.101562 57 7 57 C 5.898438 57 5 56.101562 5 55 C 5 53.898438 5.898438 53 7 53 C 7.75 53 8.398438 53.417969 8.75 54.03125" fill="#ff826e"/></g><g id="change3_6"><path d="M 19 50 C 19 50.589844 18.832031 51.152344 18.53125 51.609375 C 18 52.449219 17.070312 53 16 53 C 14.871094 53 13.890625 52.378906 13.378906 51.460938 C 13.140625 51.03125 13 50.53125 13 50 C 13 48.339844 14.339844 47 16 47 C 17.660156 47 19 48.339844 19 50" fill="#ff826e"/></g><g id="change4_1"><path d="M 57.859375 56.46875 C 55.480469 59.238281 51.941406 61 48 61 C 44.058594 61 40.519531 59.238281 38.140625 56.46875 C 39.101562 53.058594 41.730469 50.449219 45 49.449219 L 45 50 C 45 50.832031 45.339844 51.582031 45.878906 52.121094 C 46.417969 52.660156 47.167969 53 48 53 C 49.660156 53 51 51.660156 51 50 L 51 49.449219 C 52.160156 49.800781 53.238281 50.359375 54.191406 51.082031 C 55.917969 52.398438 57.238281 54.261719 57.859375 56.46875" fill="#b4dd7f"/></g><g id="change5_1"><path d="M 23.859375 22.46875 C 23.699219 22.652344 23.539062 22.832031 23.378906 23 C 21.011719 25.46875 17.679688 27 14 27 C 11.621094 27 9.390625 26.359375 7.46875 25.230469 C 6.300781 24.558594 5.238281 23.699219 4.339844 22.699219 C 4.28125 22.621094 4.210938 22.550781 4.140625 22.46875 C 4.761719 20.261719 6.082031 18.402344 7.808594 17.082031 C 8.761719 16.359375 9.839844 15.800781 11 15.449219 L 11 16 C 11 17.660156 12.339844 19 14 19 C 14.832031 19 15.582031 18.660156 16.121094 18.121094 C 16.660156 17.582031 17 16.832031 17 16 L 17 15.449219 C 20.269531 16.449219 22.898438 19.058594 23.859375 22.46875" fill="#4fc1e9"/></g><g id="change6_1"><path d="M 17 15.449219 L 17 16 C 17 16.832031 16.660156 17.582031 16.121094 18.121094 C 15.582031 18.660156 14.832031 19 14 19 C 12.339844 19 11 17.660156 11 16 L 11 15.449219 C 11.949219 15.152344 12.960938 15 14 15 C 15.039062 15 16.050781 15.152344 17 15.449219" fill="#f0d0b4"/></g><g id="change6_2"><path d="M 14 5 C 16.761719 5 19 7.238281 19 10 C 19 12.761719 16.761719 15 14 15 C 11.238281 15 9 12.761719 9 10 C 9 7.238281 11.238281 5 14 5" fill="#f0d0b4"/></g><g id="change6_3"><path d="M 51 49.449219 L 51 50 C 51 51.660156 49.660156 53 48 53 C 47.167969 53 46.417969 52.660156 45.878906 52.121094 C 45.339844 51.582031 45 50.832031 45 50 L 45 49.449219 C 45.949219 49.152344 46.960938 49 48 49 C 49.039062 49 50.050781 49.152344 51 49.449219" fill="#f0d0b4"/></g><g id="change6_4"><path d="M 48 39 C 50.761719 39 53 41.238281 53 44 C 53 46.761719 50.761719 49 48 49 C 45.238281 49 43 46.761719 43 44 C 43 41.238281 45.238281 39 48 39" fill="#f0d0b4"/></g><g id="change7_1"><path d="M 58.140625 54.390625 C 56.847656 51.703125 54.535156 49.652344 51.769531 48.660156 C 53.128906 47.558594 54 45.882812 54 44 C 54 40.691406 51.308594 38 48 38 C 44.691406 38 42 40.691406 42 44 C 42 45.882812 42.871094 47.558594 44.230469 48.660156 C 41.464844 49.652344 39.152344 51.703125 37.859375 54.390625 C 36.6875 52.539062 36 50.347656 36 48 C 36 41.382812 41.382812 36 48 36 C 54.617188 36 60 41.382812 60 48 C 60 50.347656 59.3125 52.539062 58.140625 54.390625 Z M 48 50 C 48.675781 50 49.335938 50.082031 49.976562 50.222656 C 49.863281 51.21875 49.027344 52 48 52 C 46.972656 52 46.136719 51.21875 46.023438 50.222656 C 46.664062 50.082031 47.324219 50 48 50 Z M 44 44 C 44 41.792969 45.792969 40 48 40 C 50.207031 40 52 41.792969 52 44 C 52 46.207031 50.207031 48 48 48 C 45.792969 48 44 46.207031 44 44 Z M 48 60 C 44.558594 60 41.464844 58.539062 39.273438 56.210938 C 40.105469 53.816406 41.878906 51.914062 44.101562 50.875 C 44.503906 52.660156 46.09375 54 48 54 C 49.90625 54 51.496094 52.660156 51.898438 50.875 C 54.121094 51.914062 55.894531 53.816406 56.726562 56.210938 C 54.535156 58.539062 51.441406 60 48 60 Z M 26 31 C 26 28.738281 26.710938 26.527344 28 24.683594 C 28.609375 24.976562 29.167969 25.351562 29.664062 25.796875 C 28.589844 27.3125 28 29.128906 28 31 C 28 35.808594 31.792969 39.738281 36.542969 39.976562 C 36.121094 40.578125 35.753906 41.214844 35.429688 41.875 C 30.09375 41.105469 26 36.460938 26 31 Z M 25 42 L 13 42 C 6.933594 42 2 37.066406 2 31 C 2 28.488281 2.84375 26.09375 4.390625 24.15625 C 4.878906 24.617188 5.394531 25.042969 5.945312 25.429688 C 4.6875 27.011719 4 28.945312 4 31 C 4 35.964844 8.039062 40 13 40 L 25 40 C 25.804688 40 26.59375 39.890625 27.363281 39.679688 C 27.867188 40.242188 28.425781 40.761719 29.023438 41.226562 C 27.746094 41.730469 26.382812 42 25 42 Z M 14 2 C 20.617188 2 26 7.382812 26 14 C 26 16.347656 25.3125 18.535156 24.140625 20.390625 C 22.847656 17.703125 20.535156 15.652344 17.769531 14.660156 C 19.128906 13.558594 20 11.882812 20 10 C 20 6.691406 17.308594 4 14 4 C 10.691406 4 8 6.691406 8 10 C 8 11.882812 8.871094 13.558594 10.230469 14.660156 C 7.464844 15.652344 5.152344 17.703125 3.859375 20.390625 C 2.6875 18.535156 2 16.347656 2 14 C 2 7.382812 7.382812 2 14 2 Z M 7.667969 26.46875 C 9.574219 27.441406 11.71875 28 14 28 C 17.804688 28 21.253906 26.46875 23.78125 24 L 25 24 C 25.34375 24 25.675781 24.03125 26.007812 24.082031 C 24.710938 26.144531 24 28.546875 24 31 C 24 33.523438 24.738281 35.898438 26.015625 37.914062 C 25.679688 37.964844 25.34375 38 25 38 L 13 38 C 9.140625 38 6 34.859375 6 31 C 6 29.320312 6.585938 27.734375 7.667969 26.46875 Z M 10.101562 16.875 C 10.503906 18.660156 12.09375 20 14 20 C 15.90625 20 17.496094 18.660156 17.898438 16.875 C 20.121094 17.914062 21.894531 19.816406 22.726562 22.210938 C 20.535156 24.535156 17.441406 26 14 26 C 10.558594 26 7.460938 24.535156 5.273438 22.210938 C 6.105469 19.816406 7.878906 17.914062 10.101562 16.875 Z M 14 16 C 14.675781 16 15.335938 16.082031 15.976562 16.222656 C 15.863281 17.21875 15.027344 18 14 18 C 12.972656 18 12.136719 17.21875 12.023438 16.222656 C 12.664062 16.082031 13.324219 16 14 16 Z M 10 10 C 10 7.792969 11.792969 6 14 6 C 16.207031 6 18 7.792969 18 10 C 18 12.207031 16.207031 14 14 14 C 11.792969 14 10 12.207031 10 10 Z M 30.996094 27.40625 C 31.628906 28.460938 32 29.683594 32 31 C 32 32.273438 31.652344 33.515625 31.003906 34.59375 C 30.371094 33.539062 30 32.316406 30 31 C 30 29.726562 30.347656 28.484375 30.996094 27.40625 Z M 36 31 C 36 33.261719 35.289062 35.472656 34 37.316406 C 33.390625 37.023438 32.832031 36.648438 32.335938 36.203125 C 33.410156 34.6875 34 32.871094 34 31 C 34 26.191406 30.207031 22.261719 25.457031 22.023438 C 25.878906 21.421875 26.246094 20.785156 26.570312 20.125 C 31.90625 20.894531 36 25.539062 36 31 Z M 38.21875 38 L 37 38 C 36.65625 38 36.324219 37.96875 35.992188 37.917969 C 37.289062 35.855469 38 33.453125 38 31 C 38 28.476562 37.261719 26.101562 35.984375 24.085938 C 36.320312 24.035156 36.65625 24 37 24 L 49 24 C 52.859375 24 56 27.140625 56 31 C 56 32.679688 55.410156 34.265625 54.332031 35.53125 C 52.425781 34.558594 50.28125 34 48 34 C 44.195312 34 40.746094 35.53125 38.21875 38 Z M 37 20 L 49 20 C 55.066406 20 60 24.933594 60 31 C 60 33.511719 59.15625 35.90625 57.609375 37.84375 C 57.121094 37.382812 56.605469 36.957031 56.054688 36.570312 C 57.3125 34.988281 58 33.054688 58 31 C 58 26.035156 53.960938 22 49 22 L 37 22 C 36.195312 22 35.40625 22.109375 34.636719 22.320312 C 34.132812 21.757812 33.574219 21.238281 32.976562 20.773438 C 34.253906 20.269531 35.617188 20 37 20 Z M 27 60 C 25.34375 60 24 58.65625 24 57 C 24 55.34375 25.34375 54 27 54 C 28.65625 54 30 55.34375 30 57 C 30 58.65625 28.65625 60 27 60 Z M 16 52 C 14.898438 52 14 51.101562 14 50 C 14 48.898438 14.898438 48 16 48 C 17.101562 48 18 48.898438 18 50 C 18 51.101562 17.101562 52 16 52 Z M 7 56 C 6.449219 56 6 55.550781 6 55 C 6 54.449219 6.449219 54 7 54 C 7.550781 54 8 54.449219 8 55 C 8 55.550781 7.550781 56 7 56 Z M 35 2 C 36.65625 2 38 3.34375 38 5 C 38 6.65625 36.65625 8 35 8 C 33.34375 8 32 6.65625 32 5 C 32 3.34375 33.34375 2 35 2 Z M 46 10 C 47.101562 10 48 10.898438 48 12 C 48 13.101562 47.101562 14 46 14 C 44.898438 14 44 13.101562 44 12 C 44 10.898438 44.898438 10 46 10 Z M 55 6 C 55.550781 6 56 6.449219 56 7 C 56 7.550781 55.550781 8 55 8 C 54.449219 8 54 7.550781 54 7 C 54 6.449219 54.449219 6 55 6 Z M 62 31 C 62 23.832031 56.167969 18 49 18 L 37 18 C 34.902344 18 32.847656 18.527344 31.003906 19.492188 C 29.871094 18.894531 28.648438 18.453125 27.347656 18.214844 C 27.769531 16.882812 28 15.46875 28 14 C 28 12.394531 27.714844 10.859375 27.214844 9.421875 L 30.898438 7.84375 C 31.800781 9.144531 33.300781 10 35 10 C 36.410156 10 37.675781 9.410156 38.589844 8.46875 L 42.210938 10.777344 C 42.085938 11.164062 42 11.570312 42 12 C 42 14.207031 43.792969 16 46 16 C 48.207031 16 50 14.207031 50 12 C 50 11.652344 49.941406 11.324219 49.859375 11 L 53.027344 9.242188 C 53.554688 9.707031 54.242188 10 55 10 C 56.65625 10 58 8.65625 58 7 C 58 5.34375 56.65625 4 55 4 C 53.34375 4 52 5.34375 52 7 C 52 7.167969 52.023438 7.332031 52.050781 7.496094 L 48.890625 9.25 C 48.160156 8.484375 47.140625 8 46 8 C 44.949219 8 43.996094 8.417969 43.28125 9.085938 L 39.65625 6.777344 C 39.871094 6.222656 40 5.628906 40 5 C 40 2.242188 37.757812 0 35 0 C 32.242188 0 30 2.242188 30 5 C 30 5.347656 30.035156 5.683594 30.101562 6.011719 L 26.429688 7.585938 C 24.097656 3.085938 19.40625 0 14 0 C 6.28125 0 0 6.28125 0 14 C 0 17.277344 1.140625 20.285156 3.03125 22.671875 C 1.078125 25.011719 0 27.929688 0 31 C 0 38.167969 5.832031 44 13 44 L 25 44 C 27.097656 44 29.152344 43.472656 30.996094 42.507812 C 32.128906 43.105469 33.351562 43.546875 34.652344 43.785156 C 34.230469 45.117188 34 46.53125 34 48 C 34 49.605469 34.285156 51.140625 34.785156 52.574219 L 31.101562 54.15625 C 30.199219 52.855469 28.699219 52 27 52 C 25.589844 52 24.324219 52.589844 23.410156 53.53125 L 19.789062 51.222656 C 19.914062 50.835938 20 50.429688 20 50 C 20 47.792969 18.207031 46 16 46 C 13.792969 46 12 47.792969 12 50 C 12 50.347656 12.058594 50.675781 12.140625 51 L 8.972656 52.757812 C 8.445312 52.292969 7.757812 52 7 52 C 5.34375 52 4 53.34375 4 55 C 4 56.65625 5.34375 58 7 58 C 8.65625 58 10 56.65625 10 55 C 10 54.832031 9.976562 54.667969 9.949219 54.503906 L 13.109375 52.75 C 13.839844 53.515625 14.859375 54 16 54 C 17.050781 54 18.003906 53.582031 18.71875 52.917969 L 22.34375 55.222656 C 22.128906 55.777344 22 56.371094 22 57 C 22 59.757812 24.242188 62 27 62 C 29.757812 62 32 59.757812 32 57 C 32 56.652344 31.964844 56.316406 31.898438 55.988281 L 35.570312 54.414062 C 37.902344 58.914062 42.59375 62 48 62 C 55.71875 62 62 55.71875 62 48 C 62 44.722656 60.859375 41.714844 58.96875 39.328125 C 60.921875 36.988281 62 34.070312 62 31" fill="inherit"/></g></g></svg>