<?xml version="1.0" encoding="UTF-8"?><svg xmlns="http://www.w3.org/2000/svg" xmlns:xlink="http://www.w3.org/1999/xlink" clip-rule="evenodd" fill-rule="evenodd" height="1710.0" image-rendering="optimizeQuality" preserveAspectRatio="xMidYMid meet" shape-rendering="geometricPrecision" text-rendering="geometricPrecision" version="1.0" viewBox="26.0 -3.0 1655.0 1710.0" width="1655.0" zoomAndPan="magnify"><g><g id="change1_1"><path d="M1405 1271c5,0 9,0 14,0 97,0 254,84 261,179l1 243c0,8 -7,14 -14,14l-754 0c-8,0 -14,-6 -14,-14l1 -243c1,-105 170,-179 261,-179 4,0 9,0 13,0l116 133 115 -133z" fill="#e6e7e8"/></g><g id="change2_1"><path d="M1362 1707l-135 0 23 -166c3,-24 33,0 70,-13 9,-4 18,2 19,10l23 169z" fill="#6c6a73"/></g><g id="change3_1"><path d="M1061 1707l-28 0 0 -77 -134 0 0 -28 134 0 0 -44c0,-18 28,-18 28,0l0 149z" fill="#d1d3d4"/></g><g id="change3_2"><path d="M1680 1602l1 28 -134 0 0 77 -28 0 0 -149c0,-18 28,-18 28,0l0 44 133 0z" fill="#d1d3d4"/></g><g id="change4_1"><path d="M1304 1560l-26 0c-53,0 -81,-68 -50,-71l0 -56 151 0 -20 57c23,11 -7,70 -55,70z" fill="#787680"/></g><g id="change3_3"><path d="M1405 1271c44,1 73,4 122,25l-129 255c-5,8 -17,10 -23,1l-95 -119c-5,-6 -4,-15 2,-20l123 -142z" fill="#d1d3d4"/></g><g id="change3_4"><path d="M1052 1295c50,-20 80,-23 122,-24l123 142c7,5 8,14 3,20l-95 119c-7,9 -19,7 -23,-1l-130 -256z" fill="#d1d3d4"/></g><g id="change5_1"><path d="M1201 1183c-6,-11 -27,-9 -27,7l0 81 116 133 115 -133 0 -81c0,-17 -23,-18 -27,-5l-177 -2z" fill="#ff9e7c"/></g><g id="change6_1"><path d="M1290 1236c-117,0 -212,-108 -212,-241l0 -118c0,-16 21,-18 27,-6l242 -56 131 59c7,-8 24,-4 24,10l0 111c0,133 -95,241 -212,241z" fill="#ffaf8a"/></g><g id="change7_1"><path d="M1482 945c-54,0 -109,-74 -130,-108 -131,110 -204,-14 -247,92 -6,14 -27,10 -27,-5 0,-22 -1,-35 0,-47 2,-53 5,-30 -45,-87 -4,-6 -4,-13 0,-18 44,-54 133,-95 212,-98 58,-2 108,15 143,50 24,3 114,22 114,143l0 64c0,12 -11,14 -20,14z" fill="#333"/></g><g id="change8_1"><path d="M1237 1003c-2,0 -30,-9 -45,-2 -7,3 -16,0 -19,-7 -15,-32 92,-32 77,0 -3,6 -8,9 -13,9z" fill="#ff8e70"/></g><g id="change8_2"><path d="M1394 1003c-2,0 -29,-9 -45,-2 -17,8 -29,-18 -12,-25 20,-9 82,-9 70,18 -2,6 -8,9 -13,9z" fill="#ff8e70"/></g><g id="change8_3"><path d="M1290 1138c-36,0 -84,-26 -65,-45 5,-5 14,-6 20,0 23,22 66,23 90,0 14,-13 33,7 20,20 -18,17 -41,25 -65,25z" fill="#ff8e70"/></g><g id="change1_2"><path d="M532 596c5,0 9,0 13,0 98,0 255,84 262,179l1 244c0,8 -7,14 -15,14l-753 0c-8,0 -14,-7 -14,-14l1 -244c0,-105 169,-179 261,-179 4,0 9,0 13,0l116 134 115 -134z" fill="#e6e7e8"/></g><g id="change2_2"><path d="M489 1033l-135 0 22 -167c4,-23 33,1 71,-13 9,-3 18,2 19,11l23 169z" fill="#6c6a73"/></g><g id="change3_5"><path d="M187 1033l-28 0 0 -78 -133 0 0 -28 133 0 0 -43c0,-19 28,-19 28,0l0 149z" fill="#d1d3d4"/></g><g id="change3_6"><path d="M807 927l0 28 -133 0 0 78 -28 0 0 -149c0,-19 28,-19 28,0l0 43 133 0z" fill="#d1d3d4"/></g><g id="change4_2"><path d="M431 885l-26 0c-53,0 -81,-67 -51,-71l0 -55 151 0 -19 57c23,10 -7,69 -55,69z" fill="#787680"/></g><g id="change3_7"><path d="M532 596c44,1 73,5 122,25l-130 256c-4,7 -16,9 -22,1l-95 -120c-5,-6 -4,-15 2,-20l123 -142z" fill="#d1d3d4"/></g><g id="change3_8"><path d="M178 620c51,-20 81,-23 123,-24l123 142c6,5 7,14 3,20l-95 120c-7,8 -19,6 -23,-1l-131 -257z" fill="#d1d3d4"/></g><g id="change5_2"><path d="M328 509c-6,-12 -27,-10 -27,6l0 81 116 134 115 -134 0 -81c0,-16 -23,-18 -27,-4l-177 -2z" fill="#ff9e7c"/></g><g id="change6_2"><path d="M417 562c-117,0 -212,-109 -212,-242l0 -118c0,-16 21,-18 26,-6l243 -55 130 58c8,-7 25,-4 25,10l0 111c0,133 -95,242 -212,242z" fill="#ffaf8a"/></g><g id="change7_2"><path d="M609 270c-55,0 -109,-74 -130,-107 -131,110 -204,-15 -247,91 -6,14 -27,10 -27,-5 0,-21 -1,-35 0,-47 2,-52 4,-29 -45,-87 -4,-5 -4,-13 0,-18 43,-53 133,-94 212,-97 58,-3 107,14 143,49 24,3 114,22 114,144l0 63c0,12 -11,14 -20,14z" fill="#333"/></g><g id="change8_4"><path d="M364 328c-3,0 -30,-9 -46,-1 -7,3 -15,0 -18,-7 -15,-33 92,-33 77,0 -3,5 -8,8 -13,8z" fill="#ff8e70"/></g><g id="change8_5"><path d="M521 328c-3,0 -30,-9 -46,-1 -16,7 -28,-18 -11,-26 19,-9 82,-8 70,19 -3,5 -8,8 -13,8z" fill="#ff8e70"/></g><g id="change8_6"><path d="M417 463c-36,0 -84,-25 -65,-45 5,-5 14,-5 19,0 24,23 67,23 91,0 13,-12 33,8 19,21 -17,16 -41,24 -64,24z" fill="#ff8e70"/></g><g id="change9_1"><path d="M1150 616c-29,-19 -55,-44 -81,-65 -38,-30 8,-87 45,-57l26 20 0 -10c0,-60 -49,-109 -109,-109l-323 0c-49,0 -49,-73 0,-73l323 0c100,0 182,82 182,182l0 10 26 -20c37,-30 83,27 45,57 -26,21 -53,46 -81,65 -18,14 -38,15 -53,0z" fill="#2db181"/></g><g id="change10_1"><path d="M406 1316l0 10c0,60 49,109 109,109l324 0c48,0 48,74 0,74l-324 0c-100,0 -182,-82 -182,-183l0 -8c-17,14 -37,27 -48,27 -35,0 -50,-44 -23,-65l89 -71c15,-9 30,-6 44,4l83 67c37,30 -9,87 -46,57l-26 -21z" fill="#f55a3e"/></g></g></svg>